<?xml version="1.0" standalone="no"?>
<!DOCTYPE svg PUBLIC "-//W3C//DTD SVG 20010904//EN"
 "http://www.w3.org/TR/2001/REC-SVG-20010904/DTD/svg10.dtd">
<svg version="1.0" xmlns="http://www.w3.org/2000/svg"
 width="138.000000pt" height="138.000000pt" viewBox="0 0 138.000000 138.000000"
 preserveAspectRatio="xMidYMid meet">
<metadata>
Created by potrace 1.14, written by Peter Selinger 2001-2017
</metadata>
<g transform="translate(0.000000,138.000000) scale(0.100000,-0.100000)"
fill="#000000" stroke="none">
<path d="M424 1356 c-110 -51 -164 -145 -159 -278 5 -114 50 -204 156 -309 78
-76 251 -209 273 -209 6 0 36 17 66 37 312 209 431 431 337 633 -37 80 -114
135 -205 146 -59 7 -136 -9 -171 -35 -23 -18 -25 -17 -70 7 -67 36 -160 39
-227 8z m300 -212 c3 -9 6 -40 6 -69 l0 -54 48 3 c50 3 92 -10 92 -28 -1 -30
-21 -41 -77 -41 l-58 0 -3 -55 c-4 -64 -24 -95 -53 -79 -15 8 -19 21 -19 69 0
33 -3 61 -7 61 -5 1 -30 2 -58 3 -58 2 -75 10 -75 37 0 21 36 33 103 33 l37 0
0 52 c0 67 7 84 35 84 13 0 26 -7 29 -16z"/>
<path d="M1325 878 c8 -219 -62 -330 -273 -437 l-42 -22 34 45 c47 62 61 108
44 142 -19 39 -33 40 -57 1 -12 -20 -58 -59 -109 -93 -200 -133 -232 -220
-160 -442 l20 -63 56 59 c32 32 91 80 132 106 41 27 104 68 140 92 191 125
279 277 267 461 -5 89 -9 109 -36 178 l-19 50 3 -77z"/>
<path d="M47 898 c-61 -163 -48 -309 39 -445 51 -79 102 -124 263 -231 79 -53
171 -122 203 -154 34 -34 60 -53 63 -46 40 129 46 160 47 224 0 107 -37 161
-175 255 -90 61 -109 78 -141 122 l-15 22 -21 -24 c-11 -13 -20 -33 -20 -45 0
-24 56 -126 69 -126 5 0 12 -7 15 -16 4 -10 -16 -3 -62 21 -129 70 -180 121
-219 217 -21 50 -25 79 -25 164 -1 57 -2 104 -3 104 -1 0 -9 -19 -18 -42z"/>
</g>
</svg>
