<svg width="18" height="16" viewBox="0 0 18 16" fill="none" xmlns="http://www.w3.org/2000/svg">
<path fill-rule="evenodd" clip-rule="evenodd" d="M13.5333 3.197C13.5667 3.25527 13.625 3.29689 13.7 3.29689C15.7 3.29689 17.3333 4.92841 17.3333 6.92619V11.8707C17.3333 13.8685 15.7 15.5 13.7 15.5H4.29999C2.29166 15.5 0.666656 13.8685 0.666656 11.8707V6.92619C0.666656 4.92841 2.29166 3.29689 4.29999 3.29689C4.36666 3.29689 4.43332 3.2636 4.45832 3.197L4.50832 3.09711C4.53705 3.03665 4.56653 2.97455 4.59647 2.9115C4.80965 2.46246 5.04551 1.96567 5.19166 1.6737C5.57499 0.924528 6.22499 0.508324 7.03332 0.5H10.9583C11.7667 0.508324 12.425 0.924528 12.8083 1.6737C12.9396 1.93592 13.1396 2.35833 13.3323 2.76545C13.3721 2.84942 13.4115 2.93274 13.45 3.01387L13.5333 3.197ZM12.925 6.39345C12.925 6.80966 13.2583 7.14262 13.675 7.14262C14.0917 7.14262 14.4333 6.80966 14.4333 6.39345C14.4333 5.97725 14.0917 5.63596 13.675 5.63596C13.2583 5.63596 12.925 5.97725 12.925 6.39345ZM7.55832 7.68368C7.94999 7.29245 8.45832 7.08435 8.99999 7.08435C9.54166 7.08435 10.05 7.29245 10.4333 7.67536C10.8167 8.05827 11.025 8.56604 11.025 9.1071C11.0167 10.2225 10.1167 11.1299 8.99999 11.1299C8.45832 11.1299 7.94999 10.9218 7.56666 10.5388C7.18332 10.1559 6.97499 9.64817 6.97499 9.1071V9.09878C6.96666 8.57436 7.17499 8.06659 7.55832 7.68368ZM11.3083 11.4212C10.7167 12.0122 9.89999 12.3785 8.99999 12.3785C8.12499 12.3785 7.30832 12.0372 6.68332 11.4212C6.06666 10.7969 5.72499 9.98113 5.72499 9.1071C5.71666 8.2414 6.05832 7.42564 6.67499 6.80133C7.29999 6.17703 8.12499 5.83574 8.99999 5.83574C9.87499 5.83574 10.7 6.17703 11.3167 6.79301C11.9333 7.41731 12.275 8.2414 12.275 9.1071C12.2667 10.0144 11.9 10.8302 11.3083 11.4212Z" fill="#9E9E9E"/>
</svg>
