<svg width="16" height="8" viewBox="0 0 16 8" fill="none" xmlns="http://www.w3.org/2000/svg">
<path d="M15.1057 0.16447C15.3828 0.406924 15.4109 0.8281 15.1684 1.10519L9.33507 7.77186C9.21543 7.90859 9.04516 7.99057 8.86366 7.99883C8.68216 8.00709 8.50515 7.94092 8.37358 7.81561L6.69533 6.21728L5.33507 7.77186C5.21543 7.90859 5.04516 7.99057 4.86366 7.99883C4.68216 8.00709 4.50515 7.94092 4.37358 7.81561L0.873585 4.48228C0.606965 4.22836 0.596672 3.80637 0.850596 3.53975C1.10452 3.27313 1.5265 3.26284 1.79313 3.51676L4.78956 6.37051L5.72895 5.29692L4.87358 4.48228C4.60696 4.22836 4.59667 3.80637 4.8506 3.53975C5.10452 3.27313 5.5265 3.26284 5.79313 3.51676L8.78956 6.37051L14.165 0.227184C14.4074 -0.0499067 14.8286 -0.077985 15.1057 0.16447Z" fill="url(#paint0_linear_6593_784)"/>
<path d="M11.1684 1.10519C11.4109 0.8281 11.3828 0.406924 11.1057 0.16447C10.8286 -0.077985 10.4074 -0.0499067 10.165 0.227184L7.83164 2.89385C7.58918 3.17094 7.61726 3.59212 7.89435 3.83457C8.17144 4.07703 8.59262 4.04895 8.83507 3.77186L11.1684 1.10519Z" fill="url(#paint1_linear_6593_784)"/>
<defs>
<linearGradient id="paint0_linear_6593_784" x1="15.3334" y1="7.99952" x2="0.582213" y2="0.15843" gradientUnits="userSpaceOnUse">
<stop stop-color="#246BFD"/>
<stop offset="1" stop-color="#5089FF"/>
</linearGradient>
<linearGradient id="paint1_linear_6593_784" x1="15.3334" y1="7.99952" x2="0.582213" y2="0.15843" gradientUnits="userSpaceOnUse">
<stop stop-color="#246BFD"/>
<stop offset="1" stop-color="#5089FF"/>
</linearGradient>
</defs>
</svg>
