<svg width="31" height="32" viewBox="0 0 31 32" fill="none" xmlns="http://www.w3.org/2000/svg"><g clip-path="url(#clip0_6012_20136)"><path d="M21.9212 4.40451L27.0419 4.40451C27.3814 4.40451 27.707 4.53939 27.9471 4.77946C28.1872 5.01954 28.322 5.34516 28.322 5.68468V26.1674C28.322 26.5069 28.1872 26.8325 27.9471 27.0726C27.707 27.3126 27.3814 27.4475 27.0419 27.4475H3.99886C3.65933 27.4475 3.33372 27.3126 3.09364 27.0726C2.85356 26.8325 2.71869 26.5069 2.71869 26.1674L2.71869 5.68468C2.71869 5.34516 2.85356 5.01954 3.09364 4.77946C3.33372 4.53939 3.65933 4.40451 3.99886 4.40451H9.11952V1.84418H11.6799V4.40451H19.3609V1.84418H21.9212V4.40451ZM5.27902 12.0855L5.27902 24.8872H25.7617V12.0855H5.27902ZM7.83936 17.2062H14.2402V22.3268H7.83936V17.2062Z" fill="white"/></g><defs><clipPath id="clip0_6012_20136"><rect width="30.724" height="30.724" fill="white" transform="translate(0.158325 0.563965)"/></clipPath></defs></svg>
