<svg width="39" height="29" viewBox="0 0 39 29" fill="none" xmlns="http://www.w3.org/2000/svg">
<path fill-rule="evenodd" clip-rule="evenodd" d="M8.46195 0.4375H19.3221C23.8634 0.4375 27.034 3.56694 27.034 8.05171V20.9483C27.034 25.4331 23.8634 28.5625 19.3221 28.5625H8.46195C3.92066 28.5625 0.75 25.4331 0.75 20.9483V8.05171C0.75 3.56694 3.92066 0.4375 8.46195 0.4375ZM34.4212 4.8981C35.2443 4.47931 36.21 4.5231 36.9956 5.01802C37.7812 5.51104 38.25 6.36764 38.25 7.30419V21.697C38.25 22.6354 37.7812 23.4901 36.9956 23.9831C36.5662 24.2515 36.0862 24.3886 35.6025 24.3886C35.1993 24.3886 34.7962 24.2934 34.4193 24.1011L31.6424 22.7001C30.6149 22.1786 29.9774 21.1316 29.9774 19.9685V9.03071C29.9774 7.86574 30.6149 6.81878 31.6424 6.30101L34.4212 4.8981Z" fill="#1A71FF"/>
</svg>
