<svg width="36" height="36" viewBox="0 0 36 36" fill="none" xmlns="http://www.w3.org/2000/svg">
<path d="M18.2629 35.3083L29.9296 35.3087C30.5736 35.3087 31.0963 34.7871 31.0963 34.142L31.0965 27.2387C31.0975 27.2387 31.1444 26.4546 31.1934 26.1876C31.2494 25.8903 31.2729 25.7676 31.4723 25.2543C31.925 24.1403 33.1454 21.1372 33.7324 20.0581C34.6785 18.3011 35.7635 15.9316 35.7636 13.1421C35.7638 6.06611 30.0065 0.308591 22.9307 0.308363C15.8549 0.308134 10.0972 6.06549 10.0969 13.1413C10.0969 13.86 10.1576 14.5786 10.2752 15.2856L7.90791 19.5787C7.70841 19.9404 7.71543 20.3802 7.92531 20.735C8.13546 21.0897 8.51696 21.3079 8.92996 21.3079L10.0966 21.3079L10.0966 22.4746C10.0966 23.01 10.4617 23.4757 10.981 23.6064L14.5158 24.491C14.6184 24.5165 14.7632 24.7032 14.7632 24.8082C14.7632 24.9131 14.6184 25.0998 14.5171 25.1243C14.4738 25.136 14.4319 25.1488 14.391 25.1639L12.0228 26.0482C11.5652 26.2185 11.2631 26.6549 11.2631 27.1414L11.263 29.4747C11.263 30.1198 11.7846 30.6414 12.4297 30.6414L17.0963 30.6416L17.0962 34.1416C17.0962 34.7866 17.6188 35.3082 18.2628 35.3083L18.2629 35.3083Z" fill="#246BFD"/>
<path d="M0.763505 21.3077C0.763485 21.952 1.28586 22.4744 1.93014 22.4744C2.57441 22.4744 3.09682 21.9521 3.09684 21.3078C3.09686 20.6635 2.57448 20.1411 1.93021 20.1411C1.28594 20.1411 0.763526 20.6634 0.763505 21.3077Z" fill="#3E36B0"/>
<path d="M4.26325 22.4744C4.26323 23.1187 4.7856 23.6411 5.42988 23.6411C6.07415 23.6411 6.59656 23.1187 6.59658 22.4745C6.5966 21.8302 6.07422 21.3078 5.42995 21.3078C4.78568 21.3077 4.26327 21.8301 4.26325 22.4744Z" fill="#3E36B0"/>
<path d="M4.2629 27.1414C4.26287 27.7857 4.78525 28.3081 5.42952 28.3081C6.0738 28.3081 6.59621 27.7857 6.59623 27.1415C6.59625 26.4972 6.07387 25.9748 5.4296 25.9748C4.78533 25.9747 4.26292 26.4971 4.2629 27.1414Z" fill="#3E36B0"/>
<path d="M7.76289 24.808C7.76287 25.4523 8.28524 25.9747 8.92952 25.9747C9.57379 25.9747 10.0962 25.4524 10.0962 24.8081C10.0962 24.1638 9.57387 23.6414 8.92959 23.6414C8.28532 23.6414 7.76291 24.1637 7.76289 24.808Z" fill="#3E36B0"/>
<path d="M0.763254 24.8078C0.763233 25.452 1.28561 25.9745 1.92988 25.9745C2.57416 25.9745 3.09657 25.4521 3.09659 24.8078C3.09661 24.1636 2.57423 23.6412 1.92996 23.6411C1.28568 23.6411 0.763274 24.1635 0.763254 24.8078Z" fill="#3E36B0"/>
<path d="M0.763017 28.3076C0.762996 28.9519 1.28537 29.4743 1.92965 29.4743C2.57392 29.4743 3.09633 28.9519 3.09635 28.3077C3.09637 27.6634 2.574 27.141 1.92972 27.141C1.28545 27.1409 0.763038 27.6633 0.763017 28.3076Z" fill="#3E36B0"/>
</svg>
