<svg width="17" height="17" viewBox="0 0 17 17" fill="none" xmlns="http://www.w3.org/2000/svg">
<path d="M10.3 10.1917C9.74293 10.6408 9.04891 10.8857 8.33334 10.8857C7.61776 10.8857 6.92374 10.6408 6.36667 10.1917C6.19649 10.0502 5.97709 9.98217 5.75673 10.0025C5.53638 10.0228 5.33312 10.1298 5.19167 10.3C5.05022 10.4702 4.98217 10.6896 5.00249 10.9099C5.0228 11.1303 5.12982 11.3336 5.3 11.475C6.15112 12.1855 7.22464 12.5747 8.33334 12.5747C9.44204 12.5747 10.5156 12.1855 11.3667 11.475C11.5369 11.3336 11.6439 11.1303 11.6642 10.9099C11.6845 10.6896 11.6165 10.4702 11.475 10.3C11.405 10.2157 11.319 10.1461 11.2221 10.095C11.1251 10.044 11.019 10.0125 10.9099 10.0025C10.6896 9.98217 10.4702 10.0502 10.3 10.1917ZM5.83334 7.5C5.99815 7.5 6.15927 7.45113 6.29631 7.35956C6.43335 7.26799 6.54016 7.13784 6.60324 6.98557C6.66631 6.8333 6.68281 6.66574 6.65066 6.50409C6.6185 6.34244 6.53914 6.19396 6.42259 6.07741C6.30605 5.96087 6.15756 5.8815 5.99591 5.84935C5.83426 5.81719 5.66671 5.83369 5.51443 5.89677C5.36216 5.95984 5.23201 6.06665 5.14045 6.20369C5.04888 6.34073 5 6.50185 5 6.66667C5 6.88768 5.0878 7.09964 5.24408 7.25592C5.40036 7.4122 5.61232 7.5 5.83334 7.5ZM10.8333 5.83333C10.6685 5.83333 10.5074 5.88221 10.3704 5.97378C10.2333 6.06534 10.1265 6.19549 10.0634 6.34776C10.0004 6.50004 9.98386 6.66759 10.016 6.82924C10.0482 6.99089 10.1275 7.13938 10.2441 7.25592C10.3606 7.37247 10.5091 7.45183 10.6708 7.48399C10.8324 7.51614 11 7.49964 11.1522 7.43657C11.3045 7.37349 11.4347 7.26668 11.5262 7.12964C11.6178 6.9926 11.6667 6.83148 11.6667 6.66667C11.6667 6.44565 11.5789 6.23369 11.4226 6.07741C11.2663 5.92113 11.0544 5.83333 10.8333 5.83333ZM8.33334 0C6.68516 0 5.07399 0.488742 3.70358 1.40442C2.33318 2.3201 1.26507 3.62159 0.634341 5.1443C0.00361067 6.66702 -0.161417 8.34258 0.160126 9.95909C0.48167 11.5756 1.27534 13.0605 2.44078 14.2259C3.60622 15.3913 5.09108 16.185 6.70758 16.5065C8.32409 16.8281 9.99965 16.6631 11.5224 16.0323C13.0451 15.4016 14.3466 14.3335 15.2622 12.9631C16.1779 11.5927 16.6667 9.98151 16.6667 8.33333C16.6667 7.23898 16.4511 6.15535 16.0323 5.1443C15.6135 4.13326 14.9997 3.2146 14.2259 2.44078C13.4521 1.66696 12.5334 1.05313 11.5224 0.634337C10.5113 0.215548 9.42769 0 8.33334 0ZM8.33334 15C7.01479 15 5.72586 14.609 4.62954 13.8765C3.53321 13.1439 2.67872 12.1027 2.17414 10.8846C1.66956 9.66638 1.53753 8.32594 1.79477 7.03273C2.052 5.73952 2.68694 4.55164 3.61929 3.61929C4.55164 2.68694 5.73953 2.052 7.03274 1.79477C8.32594 1.53753 9.66639 1.66955 10.8846 2.17414C12.1027 2.67872 13.1439 3.5332 13.8765 4.62953C14.609 5.72586 15 7.01479 15 8.33333C15 10.1014 14.2976 11.7971 13.0474 13.0474C11.7971 14.2976 10.1014 15 8.33334 15Z" fill="#9E9E9E"/>
</svg>
