<svg width="36" height="35" viewBox="0 0 36 35" fill="none" xmlns="http://www.w3.org/2000/svg">
<path d="M11.7045 12.1587L11.7045 11.8727C11.7047 5.37212 16.9738 0.103933 23.4751 0.104143C29.977 0.104353 35.2452 5.37176 35.245 11.8747C35.2449 14.4509 34.6503 16.3759 33.3456 18.9855C33.2594 19.1581 32.8093 20.0441 32.6896 20.2854C32.4588 20.7514 32.2886 21.1209 32.1478 21.4699C31.8205 22.2802 31.6625 22.9637 31.6625 23.6453C31.6624 25.0605 32.0148 26.5148 32.6056 27.9178C32.8141 28.4133 33.0374 28.8655 33.2595 29.2636C33.3899 29.4969 33.4877 29.6561 33.5372 29.7304C33.9081 30.2868 33.6549 31.0434 33.0237 31.2643L22.7883 34.8461C22.2492 35.0349 21.6601 34.7456 21.4793 34.2038L19.6656 28.7625L15.7942 28.7623C13.5348 28.7623 11.7036 26.9315 11.7037 24.6718L11.7038 21.0861L10.1716 21.086C8.85763 21.086 8.09283 19.897 8.64997 18.7037L11.7045 12.1587ZM25.321 9.82739C27.0168 9.82745 28.3917 8.45286 28.3918 6.75708C28.3918 5.63418 27.5811 4.41799 26.0254 2.94357C25.6305 2.5695 25.012 2.56948 24.6173 2.94352C23.0616 4.4179 22.2508 5.63399 22.2507 6.75688C22.2507 8.45266 23.6252 9.82734 25.321 9.82739ZM28.9031 16.9924C30.5989 16.9925 31.9736 15.6176 31.9736 13.9219C31.9737 12.799 31.1632 11.583 29.6073 10.1086C29.2126 9.73428 28.5941 9.73426 28.1994 10.1086C26.6434 11.5829 25.8329 12.7988 25.8328 13.9217C25.8328 15.6174 27.2073 16.9924 28.9031 16.9924ZM1.26846 8.65401L1.26864 3.17387C1.26869 1.4781 2.64362 0.103508 4.3394 0.103563C6.03518 0.103618 7.40976 1.47829 7.40971 3.17407L7.40953 8.6542C8.06125 9.3924 8.43313 10.3483 8.4331 11.3622C8.43303 13.6234 6.60004 15.4562 4.3389 15.4562C2.07776 15.4561 0.244894 13.6231 0.244967 11.362C0.245 10.3481 0.616668 9.39216 1.26846 8.65401ZM3.31545 9.07353C3.31544 9.36457 3.19164 9.64202 2.97462 9.83618C2.54253 10.2229 2.29203 10.771 2.29201 11.362C2.29197 12.4927 3.20828 13.4091 4.33894 13.4091C5.46936 13.4091 6.38598 12.4928 6.38601 11.3622C6.38603 10.7711 6.13554 10.223 5.7035 9.83627C5.48649 9.64207 5.36246 9.36461 5.36247 9.07359L5.36266 3.17401C5.36268 2.6089 4.9044 2.15058 4.33929 2.15056C3.77394 2.15055 3.31562 2.60883 3.3156 3.17394L3.31545 9.07353ZM24.6375 5.99187C24.8082 5.73603 25.0361 5.45155 25.3211 5.14087C25.6063 5.45159 25.8342 5.73608 26.0049 5.99192C26.2437 6.35021 26.3447 6.6131 26.3447 6.75701C26.3447 7.32236 25.8864 7.78066 25.321 7.78064C24.7559 7.78062 24.2976 7.32231 24.2976 6.75695C24.2976 6.613 24.3986 6.35012 24.6375 5.99187L24.6375 5.99187ZM28.2196 13.1563C28.3903 12.9004 28.6182 12.616 28.9032 12.3053C29.1882 12.616 29.4163 12.9005 29.5867 13.1563C29.8258 13.5149 29.9268 13.7777 29.9268 13.9214C29.9268 14.4868 29.4685 14.9451 28.9031 14.945C28.3377 14.945 27.8797 14.4867 27.8797 13.9214C27.8797 13.7777 27.9805 13.5148 28.2196 13.1563L28.2196 13.1563Z" fill="#1A71FF"/>
</svg>
