<svg width="36" height="36" viewBox="0 0 36 36" fill="none" xmlns="http://www.w3.org/2000/svg">
<path d="M10.9644 17.8104L15.12 17.8105C15.4846 17.8105 15.849 17.4459 15.849 17.0815L15.8492 12.4156C15.8492 10.1556 17.6719 8.26003 19.8592 8.2601C20.2238 8.26011 20.5882 7.96847 20.5882 7.53114L20.5883 3.81264C20.5884 3.37528 20.2237 3.08364 19.8594 3.08362L19.2034 3.0836C14.3185 3.08344 10.2359 7.16621 10.2357 12.1965L10.2355 17.0811C10.2355 17.4457 10.6002 17.8103 10.9645 17.8104L10.9644 17.8104Z" fill="#1A71FF"/>
<path d="M10.8191 0.969081C10.8191 0.604449 10.5275 0.240082 10.0901 0.240068L6.22595 0.239943C6.00728 0.239936 5.7886 0.312906 5.6429 0.458602C5.56992 0.604553 5.49694 0.750251 5.49693 0.968922L5.49673 7.16582C4.47602 8.04071 3.89267 9.42577 3.89262 10.884L3.89262 11.0297C5.13197 10.3737 6.73597 9.86318 8.63159 9.49884C8.85026 9.49885 9.06894 9.42588 9.21489 9.42589C9.57956 8.1136 10.0899 6.94726 10.892 5.92635L10.8919 0.969044L10.8191 0.969081Z" fill="#1A71FF"/>
<path d="M5.86055 31.6622L5.86062 29.4019C5.86063 29.1833 5.93362 28.9646 6.1523 28.8187L7.68335 27.6521L6.80862 21.3092C6.73566 20.8719 7.02733 20.5073 7.39195 20.5073C7.75658 20.4343 8.1939 20.726 8.19389 21.1633L9.14138 27.8707C9.21435 28.1623 9.06838 28.381 8.8497 28.5267L7.31865 29.7667L7.31855 32.9017C9.14114 34.3597 11.1094 35.2348 12.8593 35.2348C13.224 35.2348 13.5154 35.2348 13.8071 35.1619C14.682 35.0162 15.4111 34.6516 16.213 34.2142L14.8279 31.0063C14.7549 30.9333 14.7549 30.7876 14.7549 30.7146L14.755 27.5067L12.4224 23.6427C12.2037 23.2781 12.3495 22.8408 12.6411 22.6221C13.0058 22.4034 13.4431 22.5491 13.6618 22.8408L16.0676 26.7777C16.1406 26.9234 16.2133 26.9964 16.2133 27.1424L16.2132 30.423L17.3797 33.1934C20.4418 30.3502 22.1189 24.9552 21.0984 19.7789C20.5882 16.9356 19.2759 14.6026 17.3804 13.0715L17.3802 17.0814C17.3802 18.248 16.3595 19.2687 15.1929 19.2686L10.9643 19.2682C9.79768 19.2682 8.77704 18.2475 8.77708 17.0809L8.77723 12.1963C8.77725 11.7589 8.77726 11.3213 8.85025 10.9569L8.77753 10.9569C2.07019 12.269 -0.846147 15.9142 0.247246 21.7467C0.90341 25.319 3.16329 29.0373 5.86077 31.662L5.86055 31.6622Z" fill="#246BFD"/>
<path d="M34.294 22.0396L32.836 22.0396L31.2322 15.8426C31.1592 15.478 30.8676 15.2593 30.5032 15.2593C30.1386 15.2593 29.8472 15.5509 29.8472 15.8426L28.389 24.0808L27.5141 21.0189C27.4412 20.7272 27.2225 20.5085 26.9308 20.5085C26.6392 20.4355 26.3475 20.5815 26.2018 20.8731L24.6707 23.3517L23.2856 18.7587C23.2127 18.467 22.921 18.2484 22.6296 18.2484C22.4839 18.2483 22.338 18.2483 22.265 18.3213C22.4107 18.7587 22.4836 19.1233 22.5566 19.5607C22.7023 20.5084 22.8482 21.4563 22.8482 22.404L23.7958 25.3933C23.8687 25.6849 24.0874 25.9036 24.3791 25.9036C24.6707 25.9766 24.9624 25.8306 25.1081 25.539L26.5661 23.0604L27.8783 27.5806C27.9512 27.8723 28.2429 28.091 28.6072 28.091L28.6802 28.091C29.0449 28.091 29.3362 27.7993 29.3363 27.5077L30.7218 19.4882L31.6694 22.9878C31.7423 23.2794 32.034 23.5711 32.3983 23.5711L34.294 23.5709C34.7313 23.5709 35.023 23.2793 35.023 22.8419C35.023 22.3314 34.7313 22.0397 34.294 22.0397L34.294 22.0396Z" fill="#1A71FF"/>
</svg>
