<svg width="15" height="18" viewBox="0 0 15 18" fill="none" xmlns="http://www.w3.org/2000/svg">
<path d="M13.0667 9.34985L7.91666 14.5082C7.2415 15.1082 6.36261 15.4276 5.45976 15.401C4.55691 15.3744 3.69832 15.0039 3.05963 14.3652C2.42094 13.7265 2.05042 12.8679 2.02384 11.9651C1.99726 11.0622 2.31664 10.1833 2.91666 9.50818L9.58332 2.84152C9.98134 2.46343 10.5094 2.25263 11.0583 2.25263C11.6073 2.25263 12.1353 2.46343 12.5333 2.84152C12.9211 3.23451 13.1385 3.76441 13.1385 4.31652C13.1385 4.86863 12.9211 5.39853 12.5333 5.79152L6.78332 11.5332C6.72642 11.5945 6.658 11.6439 6.58197 11.6788C6.50594 11.7136 6.4238 11.7332 6.34023 11.7362C6.25665 11.7393 6.17329 11.7259 6.09489 11.6968C6.0165 11.6677 5.94461 11.6234 5.88332 11.5665C5.82204 11.5096 5.77257 11.4412 5.73772 11.3652C5.70288 11.2891 5.68336 11.207 5.68026 11.1234C5.67717 11.0398 5.69056 10.9565 5.71968 10.8781C5.74881 10.7997 5.79308 10.7278 5.84999 10.6665L10.125 6.39985C10.2819 6.24293 10.3701 6.0301 10.3701 5.80818C10.3701 5.58627 10.2819 5.37344 10.125 5.21652C9.96807 5.0596 9.75524 4.97144 9.53332 4.97144C9.31141 4.97144 9.09858 5.0596 8.94166 5.21652L4.66666 9.49985C4.45274 9.7121 4.28296 9.9646 4.1671 10.2428C4.05124 10.521 3.99159 10.8193 3.99159 11.1207C3.99159 11.422 4.05124 11.7204 4.1671 11.9986C4.28296 12.2768 4.45274 12.5293 4.66666 12.7415C5.10363 13.1578 5.684 13.3899 6.28749 13.3899C6.89098 13.3899 7.47135 13.1578 7.90832 12.7415L13.65 6.99152C14.3124 6.28064 14.673 5.34041 14.6559 4.36891C14.6387 3.3974 14.2452 2.47047 13.5581 1.78341C12.871 1.09634 11.9441 0.702784 10.9726 0.685643C10.0011 0.668502 9.06087 1.02912 8.34999 1.69152L1.68332 8.35818C0.784324 9.35388 0.304181 10.6581 0.342935 11.999C0.38169 13.3399 0.936352 14.6142 1.89136 15.5563C2.84636 16.4984 4.12805 17.0357 5.46939 17.0563C6.81073 17.0768 8.10827 16.579 9.09166 15.6665L14.25 10.5165C14.3277 10.4388 14.3893 10.3466 14.4314 10.2451C14.4734 10.1435 14.4951 10.0347 14.4951 9.92485C14.4951 9.81497 14.4734 9.70616 14.4314 9.60464C14.3893 9.50312 14.3277 9.41088 14.25 9.33318C14.1723 9.25548 14.0801 9.19385 13.9785 9.1518C13.877 9.10975 13.7682 9.08811 13.6583 9.08811C13.5484 9.08811 13.4396 9.10975 13.3381 9.1518C13.2366 9.19385 13.1444 9.25548 13.0667 9.33318V9.34985Z" fill="#9E9E9E"/>
</svg>
