<svg width="31" height="31" viewBox="0 0 31 31" fill="none" xmlns="http://www.w3.org/2000/svg"> <g clip-path="url(#clip0_6012_20152)"> <path d="M5.27904 23.2952H7.83937V25.8556H23.2014V5.3729L7.83937 5.3729V7.93323H5.27904V4.09273C5.27904 3.75321 5.41391 3.42759 5.65399 3.18751C5.89407 2.94744 6.21969 2.81256 6.55921 2.81256L24.4815 2.81256C24.8211 2.81256 25.1467 2.94744 25.3868 3.18751C25.6268 3.42759 25.7617 3.75321 25.7617 4.09273V27.1357C25.7617 27.4753 25.6268 27.8009 25.3868 28.041C25.1467 28.281 24.8211 28.4159 24.4815 28.4159H6.55921C6.21969 28.4159 5.89407 28.281 5.65399 28.041C5.41391 27.8009 5.27904 27.4753 5.27904 27.1357V23.2952ZM7.83937 14.3341H16.8005V16.8944H7.83937V20.7349L1.43854 15.6142L7.83937 10.4936V14.3341Z" fill="white"/> </g> <defs> <clipPath id="clip0_6012_20152"> <rect width="30.724" height="30.724" fill="white" transform="translate(0.158203 0.252197)"/> </clipPath> </defs> </svg>