<svg width="35" height="22" viewBox="0 0 35 22" fill="none" xmlns="http://www.w3.org/2000/svg">
<path d="M1.36383 0.000137508C1.18565 -0.00243928 1.00874 0.0312221 0.843383 0.0991652C0.67803 0.167108 0.527532 0.267978 0.400635 0.395912C0.273738 0.523847 0.172972 0.676295 0.104195 0.844396C0.0354178 1.0125 0 1.1929 0 1.37512C0 1.55734 0.0354178 1.73774 0.104195 1.90585C0.172972 2.07395 0.273738 2.22639 0.400635 2.35433C0.527532 2.48226 0.67803 2.58313 0.843383 2.65108C1.00874 2.71902 1.18565 2.75268 1.36383 2.7501L33.6362 2.7501C33.8144 2.75268 33.9913 2.71902 34.1566 2.65108C34.322 2.58313 34.4725 2.48226 34.5994 2.35433C34.7263 2.22639 34.827 2.07395 34.8958 1.90585C34.9646 1.73774 35 1.55734 35 1.37512C35 1.1929 34.9646 1.0125 34.8958 0.844396C34.827 0.676295 34.7263 0.523847 34.5994 0.395912C34.4725 0.267978 34.322 0.167108 34.1566 0.0991652C33.9913 0.0312221 33.8144 -0.00243928 33.6362 0.000137508L1.36383 0.000137508ZM1.36383 9.62502C1.18565 9.62244 1.00874 9.6561 0.843383 9.72404C0.67803 9.79199 0.527532 9.89286 0.400635 10.0208C0.273738 10.1487 0.172972 10.3012 0.104195 10.4693C0.0354178 10.6374 0 10.8178 0 11C0 11.1822 0.0354178 11.3626 0.104195 11.5307C0.172972 11.6988 0.273738 11.8513 0.400635 11.9792C0.527532 12.1071 0.67803 12.208 0.843383 12.276C1.00874 12.3439 1.18565 12.3776 1.36383 12.375H33.6362C33.8144 12.3776 33.9913 12.3439 34.1566 12.276C34.322 12.208 34.4725 12.1071 34.5994 11.9792C34.7263 11.8513 34.827 11.6988 34.8958 11.5307C34.9646 11.3626 35 11.1822 35 11C35 10.8178 34.9646 10.6374 34.8958 10.4693C34.827 10.3012 34.7263 10.1487 34.5994 10.0208C34.4725 9.89286 34.322 9.79199 34.1566 9.72404C33.9913 9.6561 33.8144 9.62244 33.6362 9.62502H1.36383ZM1.36383 19.2499C1.18565 19.2473 1.00874 19.281 0.843383 19.3489C0.67803 19.4169 0.527532 19.5177 0.400635 19.6457C0.273738 19.7736 0.172972 19.9261 0.104195 20.0942C0.0354178 20.2623 0 20.4427 0 20.6249C0 20.8071 0.0354178 20.9875 0.104195 21.1556C0.172972 21.3237 0.273738 21.4762 0.400635 21.6041C0.527532 21.732 0.67803 21.8329 0.843383 21.9008C1.00874 21.9688 1.18565 22.0024 1.36383 21.9999H33.6362C33.8144 22.0024 33.9913 21.9688 34.1566 21.9008C34.322 21.8329 34.4725 21.732 34.5994 21.6041C34.7263 21.4762 34.827 21.3237 34.8958 21.1556C34.9646 20.9875 35 20.8071 35 20.6249C35 20.4427 34.9646 20.2623 34.8958 20.0942C34.827 19.9261 34.7263 19.7736 34.5994 19.6457C34.4725 19.5177 34.322 19.4169 34.1566 19.3489C33.9913 19.281 33.8144 19.2473 33.6362 19.2499H1.36383Z" fill="#1A71FF"/>
</svg>
