<svg width="40" height="25" viewBox="0 0 40 25" fill="none" xmlns="http://www.w3.org/2000/svg">
<path d="M1.55867 0.00015626C1.35502 -0.0027719 1.15284 0.0354797 0.963866 0.112688C0.774892 0.189896 0.602893 0.30452 0.457868 0.4499C0.312843 0.595281 0.197683 0.768517 0.11908 0.959541C0.0404774 1.15057 0 1.35557 0 1.56264C0 1.7697 0.0404774 1.97471 0.11908 2.16573C0.197683 2.35676 0.312843 2.52999 0.457868 2.67537C0.602893 2.82075 0.774892 2.93538 0.963866 3.01259C1.15284 3.08979 1.35502 3.12805 1.55867 3.12512L38.4413 3.12512C38.645 3.12805 38.8472 3.08979 39.0361 3.01259C39.2251 2.93538 39.3971 2.82075 39.5421 2.67537C39.6872 2.52999 39.8023 2.35676 39.8809 2.16573C39.9595 1.97471 40 1.7697 40 1.56264C40 1.35557 39.9595 1.15057 39.8809 0.959541C39.8023 0.768517 39.6872 0.595281 39.5421 0.4499C39.3971 0.30452 39.2251 0.189896 39.0361 0.112688C38.8472 0.0354797 38.645 -0.0027719 38.4413 0.00015626L1.55867 0.00015626ZM1.55867 10.9375C1.35502 10.9346 1.15284 10.9728 0.963866 11.0501C0.774892 11.1273 0.602893 11.2419 0.457868 11.3873C0.312843 11.5326 0.197683 11.7059 0.11908 11.8969C0.0404774 12.0879 0 12.2929 0 12.5C0 12.7071 0.0404774 12.9121 0.11908 13.1031C0.197683 13.2941 0.312843 13.4674 0.457868 13.6127C0.602893 13.7581 0.774892 13.8727 0.963866 13.95C1.15284 14.0272 1.35502 14.0654 1.55867 14.0625H38.4413C38.645 14.0654 38.8472 14.0272 39.0361 13.95C39.2251 13.8727 39.3971 13.7581 39.5421 13.6127C39.6872 13.4674 39.8023 13.2941 39.8809 13.1031C39.9595 12.9121 40 12.7071 40 12.5C40 12.2929 39.9595 12.0879 39.8809 11.8969C39.8023 11.7059 39.6872 11.5326 39.5421 11.3873C39.3971 11.2419 39.2251 11.1273 39.0361 11.0501C38.8472 10.9728 38.645 10.9346 38.4413 10.9375H1.55867ZM1.55867 21.8749C1.35502 21.872 1.15284 21.9102 0.963866 21.9874C0.774892 22.0646 0.602893 22.1792 0.457868 22.3246C0.312843 22.47 0.197683 22.6432 0.11908 22.8343C0.0404774 23.0253 0 23.2303 0 23.4374C0 23.6444 0.0404774 23.8494 0.11908 24.0405C0.197683 24.2315 0.312843 24.4047 0.457868 24.5501C0.602893 24.6955 0.774892 24.8101 0.963866 24.8873C1.15284 24.9645 1.35502 25.0028 1.55867 24.9998H38.4413C38.645 25.0028 38.8472 24.9645 39.0361 24.8873C39.2251 24.8101 39.3971 24.6955 39.5421 24.5501C39.6872 24.4047 39.8023 24.2315 39.8809 24.0405C39.9595 23.8494 40 23.6444 40 23.4374C40 23.2303 39.9595 23.0253 39.8809 22.8343C39.8023 22.6432 39.6872 22.47 39.5421 22.3246C39.3971 22.1792 39.2251 22.0646 39.0361 21.9874C38.8472 21.9102 38.645 21.872 38.4413 21.8749H1.55867Z" fill="white"/>
</svg>
