<svg width="31" height="32" viewBox="0 0 31 32" fill="none" xmlns="http://www.w3.org/2000/svg"> <g clip-path="url(#clip0_6012_20144)"> <path d="M2.71869 12.2499C2.71802 11.2414 2.91629 10.2426 3.30215 9.31084C3.68801 8.37907 4.25388 7.53256 4.96737 6.81979C5.68085 6.10702 6.52792 5.542 7.46009 5.15707C8.39225 4.77214 9.39119 4.57486 10.3997 4.57655L20.641 4.57655C24.8822 4.57655 28.322 8.0266 28.322 12.2499V27.6196H10.3997C6.1585 27.6196 2.71869 24.1695 2.71869 19.9462V12.2499ZM25.7617 25.0592V12.2499C25.7583 10.8935 25.2175 9.59383 24.2577 8.63547C23.2979 7.67711 21.9974 7.13823 20.641 7.13688H10.3997C9.72741 7.1352 9.06141 7.26624 8.43988 7.5225C7.81836 7.77876 7.25353 8.1552 6.77779 8.63022C6.30206 9.10524 5.92478 9.6695 5.66759 10.2906C5.41039 10.9118 5.27835 11.5776 5.27903 12.2499V19.9462C5.28241 21.3026 5.82324 22.6023 6.78304 23.5606C7.74284 24.519 9.04335 25.0579 10.3997 25.0592H25.7617ZM18.0807 14.8179H20.641V17.3782H18.0807V14.8179ZM10.3997 14.8179H12.96V17.3782H10.3997V14.8179Z" fill="white"/> </g> <defs> <clipPath id="clip0_6012_20144"> <rect width="30.724" height="30.724" fill="white" transform="translate(0.158264 0.736145)"/> </clipPath> </defs> </svg>