<svg width="27" height="27" viewBox="0 0 27 27" fill="none" xmlns="http://www.w3.org/2000/svg">
<path d="M23.6287 19.3737C24.2472 18.2468 24.5776 16.9845 24.5905 15.699C24.6034 14.4136 24.2984 13.1449 23.7026 12.0058C23.1068 10.8667 22.2387 9.89246 21.1756 9.16983C20.1124 8.4472 18.8871 7.99855 17.6087 7.86377C17.2029 6.88634 16.6025 6.0017 15.844 5.26371C15.0854 4.52571 14.1846 3.9498 13.1964 3.57103C12.2082 3.19226 11.1533 3.01855 10.0958 3.06048C9.03833 3.1024 8.00044 3.35909 7.04533 3.81491C6.09021 4.27073 5.23784 4.91614 4.54011 5.71188C3.84238 6.50761 3.31388 7.437 2.98678 8.44349C2.65967 9.44998 2.54081 10.5125 2.63743 11.5664C2.73405 12.6203 3.04413 13.6435 3.54878 14.5737L2.90879 16.8237C2.8511 17.0289 2.8491 17.2457 2.903 17.452C2.9569 17.6582 3.06475 17.8463 3.21547 17.997C3.36618 18.1477 3.55432 18.2556 3.76053 18.3095C3.96674 18.3634 4.18359 18.3614 4.38878 18.3037L6.63876 17.6637C7.54406 18.1632 8.54038 18.4761 9.56875 18.5837C9.98532 19.6001 10.6119 20.5171 11.4074 21.2746C12.203 22.0321 13.1496 22.613 14.1852 22.9793C15.2208 23.3456 16.3221 23.489 17.417 23.4001C18.5119 23.3113 19.5757 22.9922 20.5387 22.4637L22.7887 23.1037C22.9942 23.1648 23.2124 23.1693 23.4203 23.1167C23.6281 23.064 23.8179 22.9562 23.9695 22.8046C24.1212 22.6529 24.229 22.4632 24.2817 22.2553C24.3343 22.0474 24.3298 21.8292 24.2687 21.6237L23.6287 19.3737ZM6.71876 16.4137C6.66073 16.4131 6.60309 16.4233 6.54876 16.4437L4.05878 17.1537L4.76878 14.6637C4.79374 14.5858 4.8013 14.5033 4.79093 14.4221C4.78057 14.3409 4.75252 14.2629 4.70878 14.1937C3.89048 12.8128 3.60437 11.1806 3.90414 9.60364C4.20392 8.02667 5.06897 6.61335 6.33691 5.62896C7.60485 4.64458 9.18849 4.15684 10.7905 4.25729C12.3926 4.35773 13.9029 5.03947 15.038 6.17452C16.173 7.30957 16.8548 8.81989 16.9552 10.4219C17.0557 12.024 16.5679 13.6076 15.5835 14.8756C14.5991 16.1435 13.1858 17.0086 11.6089 17.3083C10.0319 17.6081 8.39973 17.322 7.01876 16.5037C6.9296 16.4453 6.82537 16.414 6.71876 16.4137ZM22.4087 19.4637L23.1187 21.9537L20.6287 21.2437C20.5507 21.2187 20.4682 21.2112 20.387 21.2215C20.3058 21.2319 20.2279 21.2599 20.1587 21.3037C19.3805 21.7639 18.5162 22.0595 17.6192 22.1724C16.7223 22.2853 15.8117 22.2129 14.9437 21.9599C14.0758 21.7068 13.2691 21.2784 12.5733 20.7011C11.8776 20.1239 11.3076 19.41 10.8987 18.6037C12.8735 18.4719 14.7245 17.5954 16.0778 16.1512C17.431 14.707 18.1855 12.8029 18.1887 10.8238C18.1864 10.2552 18.1227 9.6886 17.9987 9.13376C19.0426 9.32983 20.0238 9.77457 20.8594 10.4303C21.6949 11.0861 22.3602 11.9335 22.7987 12.9009C23.2373 13.8683 23.4362 14.9271 23.3788 15.9877C23.3213 17.0482 23.0091 18.0794 22.4687 18.9937C22.4249 19.0629 22.3969 19.1408 22.3865 19.222C22.3761 19.3032 22.3837 19.3857 22.4087 19.4637Z" fill="#0D0D0D" fill-opacity="0.75"/>
</svg>
