<svg width="26" height="27" viewBox="0 0 26 27" fill="none" xmlns="http://www.w3.org/2000/svg">
<path d="M12.9643 23.8904C13.6249 23.8912 14.2693 23.6862 14.808 23.3039C15.3467 22.9215 15.7529 22.3809 15.9701 21.757H9.95844C10.1757 22.3809 10.5819 22.9215 11.1206 23.3039C11.6593 23.6862 12.3037 23.8912 12.9643 23.8904ZM20.4309 15.9821V11.0904C20.4309 7.65899 18.1003 4.76835 14.9429 3.89902C14.6304 3.11182 13.8667 2.55716 12.9643 2.55716C12.0619 2.55716 11.2982 3.11182 10.9856 3.89902C7.82832 4.76941 5.49767 7.65899 5.49767 11.0904V15.9821L3.67688 17.8029C3.57764 17.9018 3.49893 18.0194 3.44529 18.1488C3.39166 18.2782 3.36415 18.417 3.36435 18.5571V19.6237C3.36435 19.9066 3.47673 20.1779 3.67677 20.378C3.87681 20.578 4.14811 20.6904 4.43101 20.6904H21.4976C21.7805 20.6904 22.0518 20.578 22.2518 20.378C22.4518 20.1779 22.5642 19.9066 22.5642 19.6237V18.5571C22.5644 18.417 22.5369 18.2782 22.4833 18.1488C22.4296 18.0194 22.3509 17.9018 22.2517 17.8029L20.4309 15.9821Z" fill="#0D0D0D" fill-opacity="0.75"/>
<circle cx="19.0034" cy="5.63327" r="2.80496" fill="#F9A135"/>
</svg>
