<svg width="18" height="18" viewBox="0 0 18 18" fill="none" xmlns="http://www.w3.org/2000/svg">
<path fill-rule="evenodd" clip-rule="evenodd" d="M0.666656 9.00417C0.666656 4.40456 4.407 0.666016 8.99999 0.666016C13.593 0.666016 17.3333 4.40456 17.3333 9.00417C17.3333 13.5941 13.593 17.3327 8.99999 17.3327C4.407 17.3327 0.666656 13.5941 0.666656 9.00417ZM12.0566 9.84756C12.1451 9.75912 12.2577 9.62244 12.2818 9.59028C12.4105 9.42144 12.4749 9.21241 12.4749 9.00417C12.4749 8.77021 12.4025 8.55314 12.2658 8.37626C12.2545 8.36506 12.2326 8.34117 12.204 8.31004C12.1505 8.25181 12.0737 8.16821 12.0003 8.09486C11.3407 7.38735 9.61936 6.22961 8.71846 5.87586C8.58171 5.82038 8.23583 5.69898 8.05083 5.69094C7.87386 5.69094 7.70495 5.73114 7.54407 5.81154C7.34298 5.9241 7.1821 6.10097 7.09362 6.31001C7.03731 6.45473 6.94883 6.88888 6.94883 6.89692C6.86035 7.37127 6.81209 8.1431 6.81209 8.99533C6.81209 9.80816 6.86035 10.547 6.93274 11.0294C6.93474 11.0314 6.94165 11.0659 6.9524 11.1195C6.98508 11.2825 7.05316 11.6219 7.12579 11.761C7.30276 12.0987 7.64864 12.3078 8.01865 12.3078H8.05083C8.29214 12.2997 8.7989 12.0907 8.7989 12.0826C9.65153 11.7289 11.3327 10.6274 12.0084 9.8958L12.0566 9.84756Z" fill="url(#paint0_linear_6593_560)"/>
<defs>
<linearGradient id="paint0_linear_6593_560" x1="17.3333" y1="17.3327" x2="-2.49851" y2="11.5826" gradientUnits="userSpaceOnUse">
<stop stop-color="#246BFD"/>
<stop offset="1" stop-color="#5089FF"/>
</linearGradient>
</defs>
</svg>
