<svg width="31" height="32" viewBox="0 0 31 32" fill="none" xmlns="http://www.w3.org/2000/svg"> <g clip-path="url(#clip0_6012_20140)"> <path d="M15.5204 29.072C8.45006 29.072 2.71875 23.3407 2.71875 16.2704C2.71875 10.5378 6.48628 5.68594 11.6799 4.05501V6.77408C9.47922 7.66769 7.65738 9.29819 6.52604 11.3867C5.39471 13.4751 5.02418 15.8918 5.47784 18.2233C5.93149 20.5548 7.18114 22.6562 9.01303 24.1681C10.8449 25.68 13.1452 26.5085 15.5204 26.5117C17.5607 26.5116 19.5546 25.9024 21.2464 24.762C22.9383 23.6216 24.2511 22.0021 25.0167 20.1109H27.7358C26.1048 25.3045 21.253 29.072 15.5204 29.072ZM28.2581 17.5505H14.2403V3.5327C14.6614 3.49045 15.089 3.46869 15.5204 3.46869C22.5908 3.46869 28.3221 9.2 28.3221 16.2704C28.3221 16.7018 28.3003 17.1294 28.2581 17.5505ZM16.8006 6.10839V14.9902H25.6824C25.3974 12.734 24.37 10.6368 22.762 9.02876C21.154 7.42074 19.0567 6.39334 16.8006 6.10839Z" fill="white"/> </g> <defs> <clipPath id="clip0_6012_20140"> <rect width="30.724" height="30.724" fill="white" transform="translate(0.158325 0.908386)"/> </clipPath> </defs> </svg>