<svg width="18" height="18" viewBox="0 0 18 18" fill="none" xmlns="http://www.w3.org/2000/svg">
<path d="M15.2273 14.1785L17.7274 16.6774C17.844 16.7981 17.9085 16.9598 17.9071 17.1276C17.9056 17.2954 17.8383 17.456 17.7196 17.5747C17.601 17.6933 17.4404 17.7607 17.2726 17.7621C17.1048 17.7636 16.9431 17.6991 16.8224 17.5825L14.3222 15.0823C12.6884 16.4821 10.5759 17.1947 8.42806 17.0705C6.2802 16.9464 4.26391 15.9951 2.80228 14.4164C1.34065 12.8377 0.547303 10.7542 0.588709 8.60314C0.630115 6.4521 1.50306 4.40069 3.02436 2.87939C4.54566 1.35809 6.59706 0.485149 8.74811 0.443743C10.8992 0.402337 12.9826 1.19568 14.5614 2.65731C16.1401 4.11894 17.0913 6.13523 17.2155 8.28309C17.3396 10.431 16.6271 12.5434 15.2273 14.1772V14.1785ZM8.90836 15.8043C10.7757 15.8043 12.5666 15.0625 13.887 13.7421C15.2075 12.4216 15.9493 10.6308 15.9493 8.76339C15.9493 6.89602 15.2075 5.10514 13.887 3.78471C12.5666 2.46428 10.7757 1.72247 8.90836 1.72247C7.04099 1.72247 5.2501 2.46428 3.92967 3.78471C2.60925 5.10514 1.86744 6.89602 1.86744 8.76339C1.86744 10.6308 2.60925 12.4216 3.92967 13.7421C5.2501 15.0625 7.04099 15.8043 8.90836 15.8043Z" fill="#A2A3A4"/>
</svg>