<svg width="33" height="33" viewBox="0 0 33 33" fill="none" xmlns="http://www.w3.org/2000/svg"> <g clip-path="url(#clip0_6012_20148)"> <path d="M4.71932 23.2942C4.14208 22.296 3.69336 21.2288 3.38385 20.118C4.05747 19.7754 4.62318 19.2531 5.01841 18.609C5.41363 17.9648 5.62297 17.2239 5.62325 16.4681C5.62353 15.7124 5.41475 14.9713 5.02001 14.3269C4.62526 13.6824 4.05994 13.1597 3.38658 12.8166C4.00384 10.5847 5.17913 8.54659 6.80173 6.89439C7.43545 7.30639 8.17081 7.53503 8.92643 7.55499C9.68205 7.57496 10.4285 7.38547 11.0831 7.0075C11.7377 6.62952 12.2749 6.07781 12.6354 5.41341C12.9958 4.74901 13.1654 3.99783 13.1254 3.24301C15.3677 2.66352 17.7207 2.66446 19.9625 3.24574C19.9229 4.00055 20.0928 4.75161 20.4535 5.41582C20.8143 6.08003 21.3517 6.63149 22.0065 7.00917C22.6612 7.38685 23.4076 7.57603 24.1632 7.55577C24.9188 7.53552 25.654 7.30661 26.2876 6.89439C27.0782 7.70004 27.7801 8.6163 28.37 9.63907C28.9613 10.6618 29.4037 11.7283 29.7055 12.8152C29.0318 13.1579 28.4661 13.6801 28.0709 14.3243C27.6757 14.9684 27.4663 15.7094 27.4661 16.4651C27.4658 17.2208 27.6746 17.9619 28.0693 18.6064C28.464 19.2508 29.0294 19.7735 29.7027 20.1166C29.0855 22.3486 27.9102 24.3867 26.2876 26.0389C25.6539 25.6269 24.9185 25.3982 24.1629 25.3783C23.4073 25.3583 22.6608 25.5478 22.0062 25.9258C21.3517 26.3037 20.8144 26.8554 20.4539 27.5198C20.0935 28.1842 19.9239 28.9354 19.9639 29.6902C17.7216 30.2697 15.3686 30.2688 13.1268 29.6875C13.1664 28.9327 12.9965 28.1816 12.6358 27.5174C12.275 26.8532 11.7376 26.3018 11.0828 25.9241C10.4281 25.5464 9.68166 25.3572 8.92609 25.3775C8.17051 25.3977 7.43527 25.6266 6.80173 26.0389C5.9947 25.2154 5.29501 24.2932 4.71932 23.2942ZM12.4481 23.5618C13.9032 24.4011 14.9973 25.748 15.5205 27.3443C16.2019 27.4085 16.886 27.4098 17.5674 27.3457C18.091 25.7492 19.1855 24.4022 20.6412 23.5632C22.0958 22.7216 23.8099 22.4469 25.4546 22.7917C25.8506 22.2345 26.192 21.6405 26.476 21.0192C25.3555 19.7677 24.7365 18.1465 24.7377 16.4666C24.7377 14.7461 25.3795 13.1389 26.476 11.914C26.19 11.2929 25.8471 10.6996 25.4519 10.1416C23.8082 10.4861 22.0952 10.2119 20.6412 9.37143C19.1861 8.53214 18.092 7.18522 17.5688 5.58896C16.8874 5.52478 16.2033 5.52341 15.5219 5.58759C14.9983 7.18408 13.9038 8.53103 12.4481 9.37006C10.9935 10.2116 9.27942 10.4864 7.63469 10.1416C7.23946 10.6991 6.89749 11.2925 6.61329 11.914C7.73378 13.1656 8.35279 14.7868 8.35158 16.4666C8.35158 18.1872 7.70979 19.7944 6.61329 21.0192C6.89932 21.6403 7.24216 22.2337 7.63742 22.7917C9.28111 22.4471 10.9941 22.7214 12.4481 23.5618ZM16.5447 20.5632C15.4582 20.5632 14.4162 20.1316 13.648 19.3633C12.8797 18.5951 12.4481 17.5531 12.4481 16.4666C12.4481 15.3802 12.8797 14.3382 13.648 13.5699C14.4162 12.8017 15.4582 12.3701 16.5447 12.3701C17.6311 12.3701 18.6731 12.8017 19.4413 13.5699C20.2096 14.3382 20.6412 15.3802 20.6412 16.4666C20.6412 17.5531 20.2096 18.5951 19.4413 19.3633C18.6731 20.1316 17.6311 20.5632 16.5447 20.5632ZM16.5447 17.8321C16.9068 17.8321 17.2541 17.6883 17.5102 17.4322C17.7663 17.1761 17.9102 16.8288 17.9102 16.4666C17.9102 16.1045 17.7663 15.7571 17.5102 15.5011C17.2541 15.245 16.9068 15.1011 16.5447 15.1011C16.1825 15.1011 15.8352 15.245 15.5791 15.5011C15.323 15.7571 15.1791 16.1045 15.1791 16.4666C15.1791 16.8288 15.323 17.1761 15.5791 17.4322C15.8352 17.6883 16.1825 17.8321 16.5447 17.8321Z" fill="white"/> </g> <defs> <clipPath id="clip0_6012_20148"> <rect width="32.7723" height="32.7723" fill="white" transform="translate(0.158264 0.0803223)"/> </clipPath> </defs> </svg>