<svg width="16" height="16" viewBox="0 0 16 16" fill="none" xmlns="http://www.w3.org/2000/svg">
<path d="M15.1057 4.16447C15.3828 4.40692 15.4109 4.8281 15.1684 5.10519L9.33507 11.7719C9.21543 11.9086 9.04516 11.9906 8.86366 11.9988C8.68216 12.0071 8.50515 11.9409 8.37358 11.8156L6.69533 10.2173L5.33507 11.7719C5.21543 11.9086 5.04516 11.9906 4.86366 11.9988C4.68216 12.0071 4.50515 11.9409 4.37358 11.8156L0.873585 8.48228C0.606965 8.22836 0.596672 7.80637 0.850596 7.53975C1.10452 7.27313 1.5265 7.26284 1.79313 7.51676L4.78956 10.3705L5.72895 9.29692L4.87358 8.48228C4.60696 8.22836 4.59667 7.80637 4.8506 7.53975C5.10452 7.27313 5.5265 7.26284 5.79313 7.51676L8.78956 10.3705L14.165 4.22718C14.4074 3.95009 14.8286 3.92202 15.1057 4.16447Z" fill="white"/>
<path d="M11.1684 5.10519C11.4109 4.8281 11.3828 4.40692 11.1057 4.16447C10.8286 3.92202 10.4074 3.95009 10.165 4.22718L7.83164 6.89385C7.58918 7.17094 7.61726 7.59212 7.89435 7.83457C8.17144 8.07703 8.59262 8.04895 8.83507 7.77186L11.1684 5.10519Z" fill="white"/>
</svg>
